Coordinates
version=1
nRows=17
nColumns=38
inDegrees=no

Units are S.I. units (second, meters, Newtons, ...)
If the header above contains a line with 'inDegrees', this indicates whether rotational values are in degrees (yes) or radians (no).

endheader
time	pelvis_tilt	pelvis_list	pelvis_rotation	pelvis_tx	pelvis_ty	pelvis_tz	hip_flexion_r	hip_adduction_r	hip_rotation_r	knee_angle_r	ankle_angle_r	subtalar_angle_r	mtp_angle_r	hip_flexion_l	hip_adduction_l	hip_rotation_l	knee_angle_l	ankle_angle_l	subtalar_angle_l	mtp_angle_l	lumbar_extension	lumbar_bending	lumbar_rotation	arm_flex_r	arm_add_r	arm_rot_r	elbow_flex_r	pro_sup_r	wrist_flex_r	wrist_dev_r	arm_flex_l	arm_add_l	arm_rot_l	elbow_flex_l	pro_sup_l	wrist_flex_l	wrist_dev_l
1.91	-0.558148	1.48204	2.22704	0.693383	-0.270949	1.02032	-0.00446198	-0.0296044	-0.196739	0.472301	-0.0236337	0	0	-0.150527	-0.0184236	-0.106209	0.00799108	-0.399734	0	0	0.0440677	-0.046846	-0.0292996	0.560709	-0.571788	0.883178	1.56149	1.5708	0	0	0.341746	-0.406779	0.58332	1.47436	1.5708	0	0
1.92	-0.539691	1.47876	2.20859	0.69394	-0.268027	1.01968	-0.00365124	-0.0293025	-0.196389	0.472146	-0.0224381	0	0	-0.149685	-0.0184084	-0.105208	0.0079911	-0.39824	0	0	0.0455694	-0.048661	-0.0262126	0.546103	-0.575577	0.87021	1.57744	1.5708	0	0	0.333199	-0.407284	0.577345	1.48578	1.5708	0	0
1.93	-0.522016	1.47537	2.19086	0.694528	-0.265137	1.01903	-0.0027133	-0.0290235	-0.195871	0.472154	-0.0213349	0	0	-0.148678	-0.0183677	-0.104287	0.00804677	-0.39664	0	0	0.0459401	-0.0527804	-0.0210677	0.526873	-0.58018	0.851308	1.59519	1.5708	0	0	0.326109	-0.406628	0.572594	1.49775	1.5708	0	0
1.94	-0.506608	1.47182	2.1752	0.695117	-0.262291	1.01846	-0.00159383	-0.0289919	-0.195315	0.472056	-0.0206267	0	0	-0.147539	-0.0179967	-0.103421	0.00817956	-0.395479	0	0	0.0475747	-0.0533815	-0.0185353	0.513607	-0.583038	0.840221	1.60962	1.5708	0	0	0.315716	-0.406559	0.565153	1.50843	1.5708	0	0
1.95	-0.494986	1.46827	2.16345	0.695643	-0.259485	1.01793	-0.000585791	-0.0293556	-0.195282	0.472214	-0.019854	0	0	-0.146416	-0.0172848	-0.102611	0.00856248	-0.394304	0	0	0.0483834	-0.0556783	-0.0166293	0.500737	-0.585388	0.829273	1.62317	1.5708	0	0	0.304864	-0.406286	0.556639	1.52018	1.5708	0	0
1.96	-0.488656	1.46489	2.15727	0.696123	-0.256796	1.0175	2.36113e-05	-0.0300428	-0.195203	0.472415	-0.0192064	0	0	-0.145223	-0.0161844	-0.101625	0.00950368	-0.393178	0	0	0.0479803	-0.0587419	-0.0152978	0.488865	-0.587397	0.818623	1.63619	1.5708	0	0	0.295071	-0.406382	0.54859	1.53212	1.5708	0	0
1.97	-0.485339	1.46179	2.15434	0.696578	-0.254279	1.01717	0.000418856	-0.0307485	-0.194901	0.472691	-0.018783	0	0	-0.143523	-0.0149388	-0.100693	0.0117374	-0.391834	0	0	0.046754	-0.0617526	-0.0142533	0.478451	-0.589253	0.808894	1.64828	1.5708	0	0	0.287055	-0.406753	0.541701	1.54336	1.5708	0	0
1.98	-0.481575	1.45887	2.15122	0.696959	-0.251888	1.0169	0.000777379	-0.0312767	-0.194331	0.472997	-0.0187725	0	0	-0.141125	-0.0137796	-0.100723	0.015284	-0.39021	0	0	0.0455615	-0.0640081	-0.013256	0.469131	-0.5913	0.800023	1.65947	1.5708	0	0	0.280648	-0.406999	0.536248	1.55326	1.5708	0	0
1.99	-0.476939	1.45629	2.14751	0.697249	-0.24953	1.01671	0.00078042	-0.0316973	-0.193917	0.473124	-0.0190757	0	0	-0.1386	-0.0127417	-0.101815	0.0193177	-0.388696	0	0	0.044747	-0.0652893	-0.0124361	0.461043	-0.593605	0.792638	1.66956	1.5708	0	0	0.275871	-0.407429	0.53284	1.56144	1.5708	0	0
2	-0.469682	1.45392	2.14151	0.697482	-0.24731	1.01657	0.000870432	-0.0318709	-0.193608	0.473115	-0.0196778	0	0	-0.135574	-0.0120242	-0.103842	0.0241171	-0.386878	0	0	0.0435691	-0.0660201	-0.0115516	0.452846	-0.596188	0.784551	1.67975	1.5708	0	0	0.272822	-0.40768	0.530841	1.56852	1.5708	0	0
2.01	-0.459203	1.45184	2.13259	0.697669	-0.245207	1.01642	0.00108041	-0.0316061	-0.193365	0.473182	-0.0205626	0	0	-0.131945	-0.0118794	-0.106858	0.0302056	-0.383659	0	0	0.0407881	-0.0690961	-0.00838203	0.439319	-0.599703	0.769091	1.6921	1.5708	0	0	0.273517	-0.407112	0.532062	1.57567	1.5708	0	0
2.02	-0.448771	1.45016	2.12395	0.697809	-0.243188	1.01634	0.00113801	-0.0312861	-0.193634	0.473572	-0.0215157	0	0	-0.128664	-0.0118128	-0.109169	0.0355435	-0.381157	0	0	0.0393204	-0.0675962	-0.00836902	0.433467	-0.602095	0.762771	1.70099	1.5708	0	0	0.271949	-0.407633	0.53131	1.5805	1.5708	0	0
2.03	-0.43574	1.44879	2.11304	0.697878	-0.241278	1.01622	0.00135696	-0.0306138	-0.194266	0.474636	-0.0228326	0	0	-0.12491	-0.0123356	-0.112256	0.0419496	-0.377403	0	0	0.0369913	-0.0676302	-0.0083482	0.427024	-0.60459	0.755278	1.70963	1.5708	0	0	0.271314	-0.407775	0.530686	1.58606	1.5708	0	0
2.04	-0.421828	1.44765	2.10142	0.697889	-0.239457	1.01607	0.00153719	-0.0297157	-0.195097	0.475878	-0.0242189	0	0	-0.121277	-0.0131647	-0.115116	0.0482054	-0.373338	0	0	0.0345414	-0.0670812	-0.0083708	0.421006	-0.60687	0.747918	1.71776	1.5708	0	0	0.271302	-0.407663	0.530367	1.59101	1.5708	0	0
2.05	-0.406777	1.44652	2.08871	0.697867	-0.237726	1.01588	0.00176958	-0.0286514	-0.195554	0.476963	-0.0255405	0	0	-0.117673	-0.0141886	-0.117561	0.0539689	-0.369357	0	0	0.0324197	-0.0658261	-0.00831782	0.415115	-0.608677	0.740274	1.7252	1.5708	0	0	0.272255	-0.40764	0.530945	1.59505	1.5708	0	0
2.06	-0.392754	1.44527	2.07702	0.6978	-0.236077	1.0157	0.00204338	-0.0279554	-0.19571	0.477965	-0.0268328	0	0	-0.114079	-0.0149724	-0.119572	0.0592186	-0.365689	0	0	0.0307598	-0.0650015	-0.00795848	0.410223	-0.610862	0.733813	1.73163	1.5708	0	0	0.274424	-0.407642	0.532709	1.59793	1.5708	0	0
2.07	-0.379194	1.44406	2.06576	0.697674	-0.234468	1.01551	0.00219165	-0.0274678	-0.195875	0.47891	-0.0282222	0	0	-0.111145	-0.0155847	-0.121164	0.063582	-0.362192	0	0	0.0298931	-0.0640733	-0.00733915	0.406377	-0.613335	0.728782	1.73696	1.5708	0	0	0.277697	-0.40747	0.535629	1.59921	1.5708	0	0
